<svg data-name="Layer 1" xmlns="http://www.w3.org/2000/svg" xmlns:xlink="http://www.w3.org/1999/xlink" viewBox="0 0 446.16 597"><defs><linearGradient id="e" x1="231.64" y1="565.98" x2="634.69" y2="565.98" gradientUnits="userSpaceOnUse"><stop offset="0" stop-color="#183866"/><stop offset="1" stop-color="#1a7fc1"/></linearGradient><linearGradient id="c" x1="358.29" y1="31.45" x2="391.52" y2="31.45" gradientUnits="userSpaceOnUse"><stop offset="0"/><stop offset=".08" stop-opacity=".81"/><stop offset="1" stop-opacity="0"/></linearGradient><linearGradient id="d" x1="243.43" y1="657.71" x2="239.65" y2="-733.69" gradientUnits="userSpaceOnUse"><stop offset="0"/><stop offset=".14" stop-opacity=".49"/><stop offset="1" stop-opacity="0"/></linearGradient><linearGradient id="b" x1="353.61" y1="19.52" x2="377.77" y2="34.07" gradientUnits="userSpaceOnUse"><stop offset="0" stop-color="#ecc4d7"/><stop offset=".83" stop-color="#f2eac9"/></linearGradient><linearGradient id="f" x1="350.92" y1="42.48" x2="373.33" y2="42.48" xlink:href="#b"/><linearGradient id="g" x1="334.34" y1="90.8" x2="394.08" y2="70.52" xlink:href="#c"/><linearGradient id="h" x1="480.82" y1="118.27" x2="499.3" y2="118.27" xlink:href="#b"/><linearGradient id="a" x1="358.09" y1="300.15" x2="357.73" y2="371.61" gradientUnits="userSpaceOnUse"><stop offset="0"/><stop offset=".17" stop-opacity=".73"/><stop offset=".29" stop-opacity=".36"/><stop offset="1" stop-opacity="0"/></linearGradient><linearGradient id="i" x1="509.96" y1="304.83" x2="505.95" y2="366.81" xlink:href="#d"/><linearGradient id="j" x1="244.52" y1="322.83" x2="244.74" y2="335.57" xlink:href="#a"/><linearGradient id="k" x1="150.47" y1="304.46" x2="170.52" y2="374.1" xlink:href="#a"/><linearGradient id="l" x1="522.14" y1="312.05" x2="517.4" y2="365.64" gradientTransform="rotate(-180 520.86 330.205)" xlink:href="#a"/><linearGradient id="m" x1="241.66" y1="434.35" x2="244.99" y2="481.65" xlink:href="#a"/><linearGradient id="n" x1="214.17" y1="392.37" x2="194.95" y2="537.98" xlink:href="#a"/><linearGradient id="o" x1="284.7" y1="401.68" x2="265.48" y2="547.29" xlink:href="#a"/><linearGradient id="p" x1="366.12" y1="418.93" x2="409.36" y2="473.25" gradientUnits="userSpaceOnUse"><stop offset="0"/><stop offset=".17" stop-opacity=".73"/><stop offset=".26" stop-opacity=".55"/><stop offset="1" stop-opacity="0"/></linearGradient><linearGradient id="q" x1="459.59" y1="412.11" x2="458.48" y2="483.8" xlink:href="#a"/><linearGradient id="r" x1="327.32" y1="28.48" x2="337.23" y2="28.48" xlink:href="#b"/><linearGradient id="s" x1="307.63" y1="51.81" x2="443.93" y2="26.94" gradientUnits="userSpaceOnUse"><stop offset=".01" stop-color="#fff"/><stop offset=".07" stop-color="#fff" stop-opacity=".87"/><stop offset=".17" stop-color="#fff" stop-opacity=".67"/><stop offset=".27" stop-color="#fff" stop-opacity=".49"/><stop offset=".37" stop-color="#fff" stop-opacity=".34"/><stop offset=".48" stop-color="#fff" stop-opacity=".21"/><stop offset=".59" stop-color="#fff" stop-opacity=".12"/><stop offset=".7" stop-color="#fff" stop-opacity=".05"/><stop offset=".83" stop-color="#fff" stop-opacity=".01"/><stop offset=".99" stop-color="#fff" stop-opacity="0"/></linearGradient><linearGradient id="t" x1="355.49" y1="33.67" x2="331.59" y2="61.45" xlink:href="#c"/></defs><path d="M155.47 46.71c-15.92 14.18-27.37 32.78-43.09 47.18-18.84 17.25-42.81 27.62-64.39 41.3S5.89 168 1.11 193.06c-8.42 44.2 33.35 80.32 50.76 121.81 26.85 64-4.49 145 33.91 202.83 31.29 47.08 94.95 57.62 151.31 62 44.67 3.5 97.41 2.31 123.79-33.91 24.7-33.92 13.34-81.3 22.83-122.17 7.87-33.88 30.61-65.15 27.49-99.79-5.11-56.69-74.5-87.12-90.05-141.88-12.22-43 11.57-92.56-8.77-132.39-27.91-54.72-119.01-36.63-156.91-2.85z" fill="#ffbd48" opacity=".18"/><path d="M271.36 548.35c-3.39 5-.62 13.85 5.41 13.6l-45.13 25.93c9 7.76 22 8.36 33.91 8.53Q449.32 599.1 633 589.5c5-7.24-1.83-17.14-9.65-21.18s-17.28-5.78-23-12.48c-3.27-3.85-4.89-9-8.42-12.58-6.1-6.26-15.93-6.46-24.64-6.26-56.83 1.45-113.66 3.09-170.49 4.62-26.55.74-107.8-19.29-125.44 6.73z" transform="translate(-188.53)" opacity=".19" fill="url(#e)"/><path d="M224.1 87.83S247.69 66 259.39 63.08s46.71 49.64 46.71 49.64l-5.39 3.93-40.54-28.43s-43.77 49.63-66.7 33.51 30.63-33.9 30.63-33.9z" fill="#25233a"/><path d="M179.38 7.79s6.91-3.95 8.89-2.79 9 53.1 9 53.1l-33.26-12.81z" fill="#ffbd48"/><path d="M367.91 7.79s6.91-3.95 8.89-2.79 9 53.1 9 53.1l-33.26-12.81z" transform="translate(-188.53)" fill="url(#c)"/><rect x="109.37" y="125.02" width="266.39" height="429.89" rx="24.47" fill="#ffbd48"/><rect x="109.37" y="125.02" width="266.39" height="429.89" rx="24.47" fill="url(#d)"/><path d="M363.01 161.37v344.47a21.44 21.44 0 01-.59 5A22.11 22.11 0 01340.88 528H144.25a22.13 22.13 0 01-22.13-22.13v-344.5a22.13 22.13 0 0122.13-22.13h196.63a22.13 22.13 0 0122.13 22.13z" fill="#ffbd48"/><path d="M363.01 161.37v344.47a21.44 21.44 0 01-.59 5l-173.55 14.74a22.14 22.14 0 01-23.92-20.19l-29.08-343.23a22.12 22.12 0 0115.22-22.92h189.79a22.13 22.13 0 0122.13 22.13z" fill="#ffbd48"/><rect x="143.91" y="283.99" width="201.45" height="89.78" rx="18.8" fill="#fff"/><rect x="500.64" y="301" width="15.48" height="56.5" rx="6.69" transform="rotate(180 414.115 329.25)" fill="#ffbd48"/><rect x="138.93" y="401.29" width="201.45" height="89.78" rx="18.8" fill="#fff"/><path d="M364.74 4.49s3.89 2.88 4.3 6c.65 5 2.87 5.16 5.53 6.59 1.72.92-.59 4.45-.59 4.45s3.76 6.1 2.59 10.52-9.2 10.38-23.44 7.14S336 26.74 339.42 19.85s10.37-15.77 25.32-15.36z" transform="translate(-188.53)" fill="url(#b)"/><path d="M177.39 3.81c-.2-.3.78 1.33-2.92 1-1.43-.13-4.83 1.38-6.5 4.31-2.73 4.8-3.84 2.34-5.82 6s-2.41 5.65-.3 9.23c.77 1.3 1.82 2.51 2.09 4-1.15-.33-1.75-1.63-2.82-2.12a2.81 2.81 0 00-3.54 1.6 4.55 4.55 0 00.58 4.12 12.77 12.77 0 003.07 3 14.53 14.53 0 013.14 3c.26.37.49.88.23 1.26a1.18 1.18 0 01-.81.39 12.53 12.53 0 01-7-1.22 22.38 22.38 0 01-12.83-21.44 8.33 8.33 0 01.65-3 9.42 9.42 0 012-2.57A43.05 43.05 0 01165.28.67c2.42-.66 5.09-1.09 7.35 0s3.67 1.11 4.76 3.17" fill="#3f3d56"/><path d="M350.92 38.6l2.85 7s2.86 4.56 12.15 3.57 7.21-2.06 7.21-2.06-4.7-.26-7.84-7.92-14.37-.59-14.37-.59z" transform="translate(-188.53)" fill="url(#f)"/><path d="M208.17 116.62c-9.23 3.23-19.63 2-25.17.89-2.48-.48-4-.93-4-.93s-44.43-58.69-15-71.29c0 0 3-1.06 14.42.32s17.61 9.74 18.81 12.49 3.31 18.51 3.31 18.51l12.1 13.51s8.91 21.88-4.47 26.5z" fill="#ffbd48"/><path d="M376.13 102.06l-4.6 15.45c-2.48-.48-4-.93-4-.93s-44.43-58.69-15-71.29l8.24 24s-5.06 6.25 5.15 19.51z" transform="translate(-188.53)" fill="url(#g)"/><path d="M212.65 90.12s23.59-21.83 35.28-24.75 58.17 47.35 58.17 47.35l-16.85 6.22-40.54-28.43s-39.74 47.49-62.7 31.36 26.64-31.75 26.64-31.75z" fill="#3f3d56"/><path d="M480.82 117.81l5.43 5s11.11 2.82 12.76-.93-4.38-9.15-4.38-9.15z" transform="translate(-188.53)" fill="url(#h)"/><path d="M292.29 120.07s12.83-5.74 16.73-5.94 21.63 1.75 24.94 5.46a4.85 4.85 0 011 5.43h-42.67z" fill="#25233a"/><rect x="143.91" y="167.7" width="201.45" height="80.87" rx="15.3" fill="#fff"/><path fill="#ffbd48" d="M173.38 323.61H315.1v11.29H173.38zM159.66 313h2.22v34.33h-2.22a7.66 7.66 0 01-7.66-7.66v-19a7.66 7.66 0 017.66-7.67z"/><rect x="161.67" y="301" width="15.48" height="56.5" rx="6.69" fill="#ffbd48"/><path d="M365.68 307.7v43.11a6.69 6.69 0 01-6.68 6.69h-2.1a6.69 6.69 0 01-6.69-6.69V307.7a6.69 6.69 0 016.69-6.7h2.1a6.69 6.69 0 016.68 6.7z" transform="translate(-188.53)" fill="url(#a)"/><path d="M516.12 307.7v43.11a6.7 6.7 0 01-6.69 6.69h-2.09a6.7 6.7 0 01-6.7-6.69V307.7a6.7 6.7 0 016.7-6.7h2.09a6.7 6.7 0 016.69 6.7z" transform="translate(-188.53)" fill="url(#i)"/><path d="M329.6 347.41h-2.22v-34.33h2.22a7.66 7.66 0 017.66 7.66v19a7.66 7.66 0 01-7.66 7.67z" fill="#ffbd48"/><path fill="url(#j)" d="M177.15 323.61h134.96v11.28H177.15z"/><path d="M159.66 313h2.22v34.33h-2.22a7.66 7.66 0 01-7.66-7.66v-19a7.66 7.66 0 017.66-7.67z" fill="url(#k)"/><path d="M523.58 313h2.22v34.33h-2.22a7.66 7.66 0 01-7.66-7.66v-19a7.66 7.66 0 017.66-7.67z" transform="rotate(180 426.59 330.205)" fill="url(#l)"/><path fill="#ffbd48" d="M222.99 442.78h39.33v11.29h-39.33z"/><rect x="190.56" y="425.03" width="32.43" height="46.8" rx="9.26" fill="#ffbd48"/><rect x="262.31" y="425.02" width="32.43" height="46.8" rx="9.26" fill="#ffbd48"/><path d="M206.77 425v46.79h-6.95a9.25 9.25 0 01-9.26-9.26v-28.24a9.25 9.25 0 019.26-9.26zm71.76 0v46.79h-6.95a9.25 9.25 0 01-9.26-9.26v-28.24a9.25 9.25 0 019.26-9.26z" fill="#ffbd48"/><path fill="url(#m)" d="M222.99 442.78h39.33v11.29h-39.33z"/><rect x="190.56" y="425.03" width="32.43" height="46.8" rx="9.26" fill="url(#n)"/><rect x="262.31" y="425.02" width="32.43" height="46.8" rx="9.26" fill="url(#o)"/><path d="M395.3 425v46.79h-6.95a9.25 9.25 0 01-9.26-9.26v-28.24a9.25 9.25 0 019.26-9.26z" transform="translate(-188.53)" fill="url(#p)"/><path d="M467.06 425v46.79h-6.95a9.25 9.25 0 01-9.26-9.26v-28.24a9.25 9.25 0 019.26-9.26z" transform="translate(-188.53)" fill="url(#q)"/><path d="M327.44 25.68a8.2 8.2 0 00.67 4.77 7 7 0 002.57 3.34 5.9 5.9 0 006.05-.2 1 1 0 00.46-.44c.14-.35-.11-.73-.34-1l-2.91-3.74c-1.34-1.72-2.24-3.57-3.42-5.35-.62-.95-1-.72-1.83.14a5.16 5.16 0 00-1.25 2.48z" transform="translate(-188.53)" fill="url(#r)"/><path d="M180.63 58.1c-.79 10.95-18.88 15.76-18.88 15.76-8.88-9.35-2.28-20.14-2.28-20.14v-.16l-.33-5.39-.77-12.77-.2-3.35v-.11l-7.12 2.56s-4.82-1.69-5.64-2.21-2.56-3.38-4.12-6.93 3.35-5.51 3.35-5.51 14.31-3.15 20.61-6a12.18 12.18 0 0111.52 1s4.64 32.32 3.86 43.25z" fill="#ffbd48"/><path d="M369.16 58.1c-.79 10.95-18.88 15.76-18.88 15.76-8.88-9.35-2.28-20.14-2.28-20.14v-.16l-.33-5.39-.77-12.77-.2-3.35v-.11l-7.12 2.56s-4.82-1.69-5.64-2.21-2.56-3.38-4.12-6.93 3.35-5.51 3.35-5.51 14.31-3.15 20.61-6a12.18 12.18 0 0111.52 1s4.64 32.32 3.86 43.25z" transform="translate(-188.53)" fill="url(#s)"/><path d="M353 44.46a16.43 16.43 0 01-1.16 4.76c-.95 2.12-2.25 2.84-3.87 4.5.15-.25.12-.27 0-.16l-.33-5.39a1.54 1.54 0 01.08-.19c.9-2.22-.14-4.8-.31-7.2-.14-1.79-.32-3.58-.53-5.38l-.21-1.62c-.13-1-.32-1.37 0-1.73a2.57 2.57 0 01.72-.45 8.16 8.16 0 013.4-.47 2 2 0 011.56.53 2.18 2.18 0 01.38 1 36.56 36.56 0 01.27 11.8z" transform="translate(-188.53)" fill="url(#t)"/><path d="M123.01 22.87c.12 5.13 2.64 9.9 5.66 14.05a4.36 4.36 0 011 2c.18 1.42-1 2.59-1.93 3.69a15.87 15.87 0 00-3.27 11.29 32.88 32.88 0 003.41 11.51 71.72 71.72 0 0016.59 22.49 7.65 7.65 0 012.22 2.72 2.45 2.45 0 01-.92 3.08c-1.2.56-2.54-.32-3.54-1.18a70.69 70.69 0 01-21.64-33.87c-1.28-4.49-2.06-9.51.08-13.66a17 17 0 001.94-3.91c.68-3.06-1.7-5.85-3.13-8.64a15.63 15.63 0 01-.37-13.25c1-2.16 5-8.52 7.91-6.65-2 3.35-4.1 6.05-4.01 10.33zm-21.38 8.65c.59 5.09 3.55 9.61 6.95 13.45a4.74 4.74 0 011.19 1.89c.31 1.4-.77 2.67-1.59 3.85a15.88 15.88 0 00-2.2 11.56 32.73 32.73 0 004.49 11.14 71.63 71.63 0 0018.63 20.86 7.73 7.73 0 012.47 2.49 2.46 2.46 0 01-.64 3.16c-1.13.67-2.56-.09-3.63-.85a70.67 70.67 0 01-24.7-31.71c-1.69-4.35-2.94-9.27-1.19-13.6a16.68 16.68 0 001.56-4.07c.39-3.12-2.23-5.67-3.91-8.32a15.63 15.63 0 01-1.59-13.15c.76-2.25 4.19-8.95 7.26-7.36-1.75 3.52-3.59 6.41-3.1 10.66z" fill="#ffbd48" opacity=".47"/><path d="M198.13 191.41s-15.21 17.92-12.08 24.17 31.51 5.94 31.51 5.94l6 27h40.63l6.28-26.52s27.29 0 29-8.34-14-25-14-25-.84-6-3.55-5.62-7.91.62-8.75 3.54 3.21 5.21 3.21 5.21-2.12 1.17-1.5 2 5.18 1 5.18 1 2.5 12.42 5 13.25c0 0-14.87-9.36-26.81-5.61 0 0-6.95 5.61-5.91-.07.3-1.64 1.46-7.08 1.46-7.08s3.75-2.29 3.75-3.75-2.08-1.46-2.71-.83 1.46-6.09-2.92-7.73-13.12-3.52-16.87 2.31-.11 8-3.23 9.69l1.77 2.08s-1.23 4.55.31 5.21c4.07 1.75 2.55 2.77.42 3.33a5.74 5.74 0 01-5.33-1.32c-1.74-1.6-8.93-3.42-13.8-1.42-12.64 5.19-17.54 5.87-17.54 5.87s5.94-1.15 8.23-10.32 5.31-12.29 5.31-12.29 3.86-.41 3.86-1-1.77-1.87-1.77-1.87 1.35-3.41-.59-4.38a38.44 38.44 0 00-6.12-1.94s-2.38.55-2.78 4.72-5.66 9.77-5.66 9.77zm60.84 354.77h-25.34a5.66 5.66 0 01-5.66-5.67 5.66 5.66 0 015.66-5.66h25.34a5.66 5.66 0 015.66 5.66 5.66 5.66 0 01-5.66 5.67z" fill="#ffbd48"/></svg>