<svg data-name="Layer 1" xmlns="http://www.w3.org/2000/svg" xmlns:xlink="http://www.w3.org/1999/xlink" viewBox="0 0 524.03 495.35"><defs><linearGradient id="a" x1="297.38" y1="127.64" x2="320.02" y2="153.54" gradientUnits="userSpaceOnUse"><stop offset=".01"/><stop offset=".13" stop-opacity=".69"/><stop offset="1" stop-opacity="0"/></linearGradient><linearGradient id="b" x1="228.86" y1="341.26" x2="353.71" y2="341.26" xlink:href="#a"/></defs><path d="M410.69 477.88c40.46-11.4 82.38-30.81 102-68 16.78-31.79 13.61-71.27-.72-104.23-6.1-14-14.15-27.44-17.34-42.41-3.39-15.91-1.05-32.42 1.3-48.51l9.33-63.89c1.69-11.55 3.37-23.36 1.25-34.84-2.18-11.78-8.26-22.5-15.42-32.1-35.1-47.1-94.81-69.2-152.81-78.54-46-7.4-93.74-8.23-138.62 4.31S112.89 49.12 88.03 88.55c-10.1 16-17.21 33.75-25.7 50.71-9.86 19.71-21.59 38.43-31.52 58.1C13.54 231.54 1.72 268.9.12 307.16c-1.52 36.49 8.55 67 22.52 100 11.53 27.25 43.79 38.24 69.72 49.35a485.13 485.13 0 00202.77 38.68 470.73 470.73 0 00115.56-17.31z" fill="#ffbd48" opacity=".18" style="isolation:isolate"/><ellipse cx="273.54" cy="427.92" rx="174.98" ry="20.8" fill="#ffbd48" opacity=".18" style="isolation:isolate"/><path d="M279.65 70.19c1.93 2.38 2.58 5.54 2.81 8.59.35 4.61-.11 9.27.57 13.84s2.82 9.27 6.89 11.45a5.79 5.79 0 01-8.17-.87l-.16 2.91a12.15 12.15 0 01-5.39-4.43c0 1.16-1.56 1.8-2.64 1.38a4.86 4.86 0 01-2.29-2.51c-2.45-4.78-3.29-10.2-4.09-15.51l-1.31-8.63c-.34-2.22-.66-4.58.28-6.62 2.11-4.57 10.88-2.78 13.5.4z" fill="#3f3d56"/><path d="M307.62 119.18c1.93 2.38 2.58 5.54 2.81 8.59.35 4.61-.11 9.27.57 13.84s2.82 9.27 6.89 11.45a5.79 5.79 0 01-8.17-.87l-.16 2.91a12.15 12.15 0 01-5.39-4.43c0 1.16-1.56 1.8-2.64 1.38a4.86 4.86 0 01-2.29-2.51c-2.45-4.78-3.29-10.2-4.09-15.51l-1.31-8.63c-.34-2.22-.66-4.58.28-6.62 2.11-4.57 10.88-2.78 13.5.4z" transform="translate(-27.97 -48.99)" fill="url(#a)"/><path d="M195.9 407.74a47.59 47.59 0 01-7 9 25.38 25.38 0 00-4.47 5.2c-1.1 2-1.42 4.66-.09 6.53 1.75 2.48 5.35 2.55 8.38 2.3 5.42-.45 11.55-1.5 14.51-6.07 1.35-2.06 1.85-4.62 3.38-6.54 1.1-1.37 2.67-2.34 3.68-3.78 2.11-3 1.23-7.13.22-10.67a5.55 5.55 0 00-1.88-3.32 5.27 5.27 0 00-3.07-.6c-2.85.07-6.36 0-8.8 1.6-2.23 1.49-3.52 4.1-4.86 6.35zm138.88-5.24a48.26 48.26 0 007 9 25.17 25.17 0 014.47 5.21c1.1 2 1.42 4.65.1 6.52-1.76 2.49-5.36 2.55-8.39 2.3-5.42-.44-11.55-1.5-14.51-6.06-1.34-2.06-1.84-4.62-3.38-6.54-1.1-1.38-2.67-2.35-3.68-3.79-2.11-3-1.23-7.12-.22-10.66a5.63 5.63 0 011.88-3.33 5.28 5.28 0 013.07-.59c2.85.06 6.37 0 8.8 1.59 2.24 1.48 3.52 4.1 4.86 6.35z" fill="#ffbd48"/><path d="M317.27 397.01c.76 1.6 1.75 3.26 3.38 3.95a8.11 8.11 0 004.73 0 4.54 4.54 0 002.28-1 4.14 4.14 0 00.93-2.66 27.18 27.18 0 00-4.29-17.07c-1.7 1.11-3.39 2.25-5 3.43-1.12.8-4.18 2.3-4.75 3.56-1.06 2.29 1.73 7.68 2.72 9.79zm-116.82 1.51c-.29 2.28-.55 4.76.64 6.73a5.32 5.32 0 007.17 1.61 7.69 7.69 0 002.06-2.19 19.9 19.9 0 003-9.11 59 59 0 00-.12-9.68c0-.63-9.08 3.36-9.8 3.84-2.98 1.96-2.51 5.44-2.95 8.8z" fill="#e9b9a3"/><path d="M224.03 246.31c-.71 22.43-.57 45.09-5.21 67-5.78 27.32-19 53.45-17.9 81.42 2.58 2.72 7.15 2 9.91-.51s4.17-6.25 5.47-9.85c6.26-17.29 12.53-34.59 17.71-52.27 5.84-19.92 10.29-40.3 17.07-59.87 3.9-11.27 8.6-22.39 10.12-34.28a6.14 6.14 0 005.16-1.11c2.27 22.45 17.79 41.09 22.43 63.14 1.65 7.86 1.87 16 2.79 23.95 2.78 24.42 12 47.67 24.41 68.48 3.55 1.11 7.32-1.8 8.71-5.42s1.05-7.7.67-11.58c-1.26-13-2.53-26.12-6-38.66-3.14-11.28-8-22.05-9.86-33.66-1.27-8.1-1-16.37-.88-24.59.42-31.63-2.59-65.39-20.92-90.39a150.49 150.49 0 01-29 4.46c-8.09.44-16.91-2.6-22.48 4.1-10.71 12.89-11.66 33.39-12.2 49.64z" fill="#3f3d56"/><path d="M252 295.3c-.71 22.43-.57 45.09-5.21 67-5.78 27.32-19 53.45-17.9 81.42 2.58 2.72 7.15 2 9.91-.51s4.17-6.25 5.47-9.85c6.26-17.29 12.53-34.59 17.71-52.27 5.84-19.92 10.29-40.3 17.07-59.87 3.9-11.27 8.6-22.39 10.12-34.28a6.14 6.14 0 005.16-1.11c2.27 22.45 17.79 41.09 22.43 63.14 1.65 7.86 1.87 16 2.79 23.95 2.78 24.42 12 47.67 24.41 68.48 3.55 1.11 7.32-1.8 8.71-5.42s1.05-7.7.67-11.58c-1.26-13-2.53-26.12-6-38.66-3.14-11.28-8-22.05-9.86-33.66-1.27-8.1-1-16.37-.88-24.59.42-31.63-2.59-65.39-20.92-90.39a150.49 150.49 0 01-29 4.46c-8.09.44-16.91-2.6-22.48 4.1-10.71 12.89-11.66 33.39-12.2 49.64z" transform="translate(-27.97 -48.99)" fill="url(#b)"/><path d="M239.4 191.59c5.11 7.17 14.25 10.86 23 10.55s17.2-4.24 24-9.78a5.88 5.88 0 002.16-2.64 7.74 7.74 0 00-.22-3.72c-1.51-8.17 3.34-16.22 3.46-24.53a6.81 6.81 0 00-.66-3.43 7.47 7.47 0 00-3.14-2.62c-7.77-4.26-16.64-6.89-25.48-6.22-6.36.47-20.41 4.45-22.2 11.95-.9 3.79 1.82 10.45 1.77 14.63a49.5 49.5 0 01-2.69 15.81z" fill="#e9b9a3"/><path fill="#ffbd48" d="M324.14 68.03L303.2 80.25l3.52 5.61 20.71-12.18-3.29-5.65z"/><path d="M292.21 106.15a16.25 16.25 0 0110.28 3.18 48.32 48.32 0 018 7.49c2.55-1.15 5.49-.76 8.24-.28a152.43 152.43 0 0120.75 5.19 87.29 87.29 0 00-16.45-34.37 2.37 2.37 0 00-.73-.68 2 2 0 00-1.39 0c-2.58.75-5.19 2.55-7.69 1.6a6.79 6.79 0 01-2.07-1.41 27.2 27.2 0 01-7.12-10.7c2.8 1 3.85 4.83 6.7 5.67 2 .59 4.07-.53 5.7-1.82s3.21-2.82 5.25-3.24c2.49-.52 5.07.84 6.76 2.74a27.52 27.52 0 013.82 6.59c6.28 13 16.44 23.68 23.38 36.3 1.8 3.28 3.41 6.76 3.76 10.48a4.41 4.41 0 01-.26 2.37 4.29 4.29 0 01-1.61 1.61 19.68 19.68 0 01-8.52 2.56 104 104 0 01-14.77.25c-6.55-.2-13.32-.46-19.18-3.38-3.73-1.86-7.47-4.85-11.56-4-1 .2-6.39 8.91-7.35 9.22-2.69.9-3.15-3.26-6-3.46-3.17-.23-4.38-4.88-7.05-6.62a15.83 15.83 0 01-5.82-7.83 25.83 25.83 0 01-1.85-7.74c-.09-2.69 2-2.74 4.26-4.07 3.95-2.32 7.82-5.29 12.52-5.65z" fill="#e9b9a3"/><rect x="353.32" y="107.13" width="11.54" height="22.66" rx="3.37" transform="rotate(148.74 351.96 90.068)" fill="#ffbd48"/><rect x="323.69" y="123.79" width="11.54" height="22.66" rx="3.37" transform="rotate(148.74 322.32 106.727)" fill="#ffbd48"/><path d="M321.58 70.3a10.33 10.33 0 012.37 3.14 2.77 2.77 0 01.37 1 1 1 0 01-.36.94c-.54.36-1.24-.09-1.71-.54a21.1 21.1 0 01-2.4-2.77 17.05 17.05 0 011.94 3.49 1.31 1.31 0 010 1.19.94.94 0 01-.52.32 2.11 2.11 0 01-1.6-.47 16 16 0 01-2.77-2.55 16.76 16.76 0 011.61 3.33 1.85 1.85 0 01.15 1 1.34 1.34 0 01-1.36.91 3.13 3.13 0 01-1.62-.67 10.36 10.36 0 01-2.48-2.42c.39 1 1.13 1.72 1.46 2.69a2.79 2.79 0 01-.25 2.47 2 2 0 01-2.24.82 3.52 3.52 0 01-1.19-.85l-2-1.88a2.8 2.8 0 00-1.51-.92h-.61a1.93 1.93 0 01-1.06-.92 2.05 2.05 0 01-.49-1.2 1.68 1.68 0 01.4-.89c1.4-1.84 3.79-2.53 5.77-3.72a24.09 24.09 0 012.18-1.3 6.64 6.64 0 012.16-.43c.69-.07 1.13-.53 1.78-.74a4.32 4.32 0 013.98.97z" fill="#e9b9a3"/><path fill="#ffbd48" d="M178.96 101.86l24.13-2.31.42 6.61-23.93 2.2-.62-6.5z"/><path d="M227.13 114.16a16.29 16.29 0 00-6.49 8.58 48.74 48.74 0 00-2.1 10.74c-2.74.56-4.91 2.59-6.86 4.59a152.74 152.74 0 00-13.82 16.33 87.38 87.38 0 01-6.75-37.48 2.08 2.08 0 01.2-1 2 2 0 011.15-.79c2.52-.89 5.69-.95 7.17-3.19a6.7 6.7 0 00.85-2.35 26.91 26.91 0 00-.45-12.89c-1.7 2.44-.31 6.17-2.12 8.52-1.27 1.64-3.62 1.94-5.7 1.85s-4.25-.42-6.15.43c-2.33 1-3.63 3.64-3.89 6.17a27.78 27.78 0 00.75 7.58c2.47 14.2.48 28.82 2.21 43.12.45 3.72 1.18 7.48 3.06 10.71a4.42 4.42 0 001.6 1.77 4.25 4.25 0 002.24.36 19.43 19.43 0 008.41-2.89 105.48 105.48 0 0012.14-8.42c5.2-4 10.56-8.15 13.61-13.94 1.94-3.69 3.23-8.3 7-10a24.11 24.11 0 012.88-.92 21.61 21.61 0 007.28-4.3 19 19 0 005.89-7.38 15.87 15.87 0 00.16-9.76 25.74 25.74 0 00-3-7.36c-1.5-2.24-3.21-1.07-5.83-.82-4.54.44-9.41.29-13.44 2.74z" fill="#e9b9a3"/><path d="M254.17 102.16c-.06 2-.09 4.16.94 5.89 1.65 2.81 5.39 3.52 8.65 3.45a12 12 0 004.37-.76 5.35 5.35 0 003.1-3 8.53 8.53 0 00.25-3.19l-.4-7.74a16.32 16.32 0 00-.92-5.52 1.69 1.69 0 00-.61-.84 1.87 1.87 0 00-1-.17 104.66 104.66 0 00-10.61.88c-2.31.31-3.56.84-3.58 3.13-.07 2.6-.11 5.24-.19 7.87z" fill="#e09d80"/><path d="M249.82 90.84c3.21 4.26 8.57 7.59 13.74 6.25 3.85-1 6.66-4.35 8.54-7.85a33.25 33.25 0 001.74-27.31 17 17 0 00-4.29-6.75c-3.92-3.5-9.8-3.89-14.93-2.72-3.46.79-7.25 2.77-9.19 5.89-1.5 2.4-1.32 5.62-1.47 8.34-.45 8.39.66 17.26 5.86 24.15z" fill="#e9b9a3"/><path d="M247.54 109.45c-.8.36-1.72.74-2 1.57a3.14 3.14 0 00-.08 1.4 35.7 35.7 0 01-6.66 23.87 35.41 35.41 0 00-2.87 4.13 15.93 15.93 0 00-1.42 9.44 47.66 47.66 0 002.47 9.36 5.51 5.51 0 00.91 1.85c1.52 1.75 4.33.88 6.47 0a49.68 49.68 0 0128.39-2.94c5.91 1.22 11.6 3.66 17.62 4a3.7 3.7 0 002.14-.34 4 4 0 001.43-2.64l3.35-13.85a8.8 8.8 0 00.37-3c-.27-2.43-2.41-4.13-4.1-5.89-4.93-5.13-6.79-12.39-8.47-19.3a34.55 34.55 0 01-1.21-7.12 3.91 3.91 0 00-.33-1.92 3.28 3.28 0 00-1.25-1.08c-3.15-1.79-7-2.5-9.47-5.18a5.86 5.86 0 00-2.09-1.88 4.11 4.11 0 00-1.64-.14c-2.54.12-5.07.33-7.59.61-1.64.19-5.78 0-7 1.15-1 1-1.29 3.35-2.33 4.57a13.19 13.19 0 01-4.64 3.33z" fill="#ffbd48"/><rect x="196.33" y="144.76" width="11.54" height="22.66" rx="3.37" transform="rotate(-4.46 -440.777 490.789)" fill="#ffbd48"/><rect x="230.11" y="140.98" width="11.54" height="22.66" rx="3.37" transform="rotate(-4.46 -406.94 487.091)" fill="#ffbd48"/><path d="M182.36 102.2a10.24 10.24 0 00-.09 3.94 2.66 2.66 0 00.27 1 1 1 0 00.85.55c.64 0 .95-.79 1.07-1.43a21.26 21.26 0 00.33-3.65 16.44 16.44 0 00.47 4 1.3 1.3 0 00.69 1 .92.92 0 00.61 0 2.13 2.13 0 001-1.32 15.91 15.91 0 00.75-3.69 16.72 16.72 0 00.64 3.65 1.9 1.9 0 00.48.92 1.32 1.32 0 001.63-.06 3.1 3.1 0 00.93-1.48 10.52 10.52 0 00.6-3.42c.23 1 .09 2.06.38 3.05a2.81 2.81 0 001.64 1.85 2 2 0 002.31-.64 3.47 3.47 0 00.46-1.38l.5-2.68a2.8 2.8 0 01.69-1.63 4.22 4.22 0 00.47-.39 1.92 1.92 0 00.32-1.36 2.08 2.08 0 00-.3-1.26 1.69 1.69 0 00-.85-.49c-2.2-.67-4.55.16-6.85.35a21.41 21.41 0 00-2.53.22 6.46 6.46 0 00-2 .91 8.55 8.55 0 01-1.88.43 4.31 4.31 0 00-2.59 3.01z" fill="#e9b9a3"/><path d="M242.03 63.28a17.11 17.11 0 019.38-12 21.51 21.51 0 018.1-1.61 15 15 0 018.12 1.56c2.41 1.41 4 3.82 5.4 6.26 2.55 4.55 4.45 10.09 2.47 14.91-.71-3.38-1.44-6.84-3.26-9.78a15 15 0 00-27.46 5.39c-.48 2.83-.11 5.75-.43 8.56-3.46-1.9-3.14-9.93-2.32-13.29z" fill="#3f3d56"/><path d="M242.03 75.5a1.32 1.32 0 00-.56 0c-.52.14-.74.74-.79 1.27a10.07 10.07 0 003.1 6.4 3 3 0 001.89.74 1.1 1.1 0 00.94-.41 1.42 1.42 0 00.15-.57 9.28 9.28 0 00-1.33-5 3.48 3.48 0 00-1.24-1.65 5.82 5.82 0 00-2.16-.78zm34.52-5.89a2 2 0 011.6-.09 2.24 2.24 0 011.09 2.14 16.4 16.4 0 01-1.11 6.59 1.46 1.46 0 01-.72.91c-.65.25-1.33-.3-1.71-.83-1.67-2.32-2.56-7.06.85-8.72z" fill="#e9b9a3"/></svg>