<svg id="Слой_3" data-name="Слой 3" xmlns="http://www.w3.org/2000/svg" viewBox="0 0 357.78 270.29"><defs><style>.cls-2{stroke:#000;stroke-miterlimit:10}</style></defs><ellipse cx="171.5" cy="260.29" rx="106.19" ry="10" fill="#004964"/><path class="cls-2" d="M154.33 371h88.45c26.29 0 67.07.28 74.55.38a69 69 0 008.39-.34c7.23-.8 8.71-2.34 9.28-3 2.63-3.27 1.35-8.15 1-9.33-1.24-4.22-4.21-6.39-7.38-9.17a86.21 86.21 0 01-12.83-14.17v-43.5c42.86 28.18 69.2 45.95 74.93 50.77a28.56 28.56 0 008.07 4.89 29.33 29.33 0 0011.17 2 27.77 27.77 0 0015-4.83c3.1-2.19 3.79-3.78 4-4.33 1.08-2.81 0-5.51-1.33-8.81-1.88-4.6-3.64-6.08-8.34-13.85-1.43-2.36-2.14-3.54-2.43-4.15-4.9-10.44 1.28-20-1.79-31.35A21.1 21.1 0 00413 277c-.69-1.17-1.51-2.3-6-6.67-3.4-3.31-6.88-6.5-6.88-6.5.54-.69 5.16-6.82 3-14.15-.38-1.28-2.38-7.41-7.12-8.69-4.53-1.22-8 2.95-11.88.83a7.13 7.13 0 01-3.12-3.17c.19-.2 4.7 3.73 4.71 3.71s-6.7-5.23-13.52-11.79c-5.3-5.11-8.54-9.53-10.53-11.26-5-4.38-17.14-17.59-41.33-44-14.95-16.32-20.49-23.09-32.55-32.83-2.68-2.17-7-5.6-12.79-9.5-2.32-1.55-20.67-13.65-40.88-19.5-39.88-11.54-78.73 3.68-82.38 5.16-9.15 3.72-41.56 17.44-62.4 53.34a124.74 124.74 0 00-16.6 66.33c.25 7.7 1.84 34 17.26 59.34 7.16 11.77 17.22 23.23 20.71 27.19 6.22 7.08 9.72 10.23 20 20.81 6.42 6.69 14.49 15.22 23.63 25.35z" transform="translate(-72.17 -108.71)"/><path class="cls-2" d="M356.83 231.63l-10.58 6.26"/><path d="M392 285c.49-.38 1.29-.11 2.29.23 2.24.76 3 2.1 5 3.77 3 2.48 4.62 2.3 4.67 3.33.08 1.67-4 4.19-7.33 3.33-4.97-1.28-6.28-9.39-4.63-10.66zm-164.12 83.59c-.19-.91 2.79-1.56 4.46-5.18a8.86 8.86 0 00.67-5.92c-.75-2.64-3.79-4.77-3.79-4.77C210 339.34 205 331 205 331a48.56 48.56 0 01-4.93-13.34c-.06-.41-.11-.74-.14-1-.06-.46-.12.06-.43-9.79-.2-6.2-.15-8.62-.12-9.75a55.19 55.19 0 01.38-7.4 6.44 6.44 0 00.25-3 6.14 6.14 0 00-1-2.43c-1.47-2.19-2.93-9-3-13.7 0-1.47 0-12.4 8-19.74 2.8-2.56 5.64-3.68 11.33-5.92a65.54 65.54 0 0118.66-4.6 68.48 68.48 0 0121.67 1.67c5.94 1.25 8.91 1.89 12.67 3.95 2.08 1.14 11.25 6.17 14 15.8.87 3 .92 5.83 1 11.48 0 2.78-.1 4-.58 5.25-1.2 3.22-3.5 3.83-3.47 6 0 2.48 2.13 4 3.79 5.81 3.09 3.28 4.13 6.83 6.21 13.94a53.29 53.29 0 011.33 23 48.49 48.49 0 01-7.29 19.77c-7.68 11.67-18.53 16.5-23 18.43-15.76 6.73-32.02 5.23-32.45 3.16z" transform="translate(-72.17 -108.71)" fill="#fff" stroke="#000" stroke-miterlimit="10"/><path class="cls-2" d="M269 276.38c-1.09.8-3-.56-6.5-2.37-2.83-1.45-8.26-4.23-14.35-5.16a44.43 44.43 0 00-8-.34 64.66 64.66 0 00-7.5.63 48.94 48.94 0 00-9.75 2 30.13 30.13 0 00-7 3c-2.94 1.81-4.1 3.34-5.21 2.88s-1.2-2.6-1.29-5a15.73 15.73 0 011.32-8.07 15 15 0 014.19-5c1.09-.95 4.7-3.63 15.09-4.95a75.33 75.33 0 0119.76.15 38.54 38.54 0 0111.91 3.19c3.78 1.75 5.53 3.4 6.46 5.29a16.88 16.88 0 011.12 3.47 20.69 20.69 0 01.34 4.27c.04 3.69.05 5.53-.59 6.01z" transform="translate(-72.17 -108.71)"/></svg>