<svg xmlns="http://www.w3.org/2000/svg" viewBox="0 0 384.97 384.97" width="512" height="512"><path d="M372.94 120.303H12.031c-6.641 0-12.03-5.39-12.03-12.03 0-6.641 5.39-12.03 12.03-12.03H372.94c6.641 0 12.03 5.39 12.03 12.03s-5.39 12.03-12.03 12.03zM12.031 180.455H372.94c6.641 0 12.03 5.39 12.03 12.03s-5.39 12.03-12.03 12.03H12.031c-6.641 0-12.03-5.39-12.03-12.03s5.389-12.03 12.03-12.03zm0 84.212h240.606c6.641 0 12.03 5.39 12.03 12.03 0 6.641-5.39 12.03-12.03 12.03H12.031c-6.641 0-12.03-5.39-12.03-12.03-.001-6.641 5.389-12.03 12.03-12.03z" data-original="#000000" class="active-path" data-old_color="#000000"/></svg>